<svg width="26" height="26" viewBox="0 0 26 26" fill="none" xmlns="http://www.w3.org/2000/svg">
<rect x="0.4187" y="0.4187" width="25.1626" height="25.1626" rx="12.5813" stroke="#0071BC" stroke-width="0.8374"/>
<path d="M13.1436 7.25077C13.5997 7.24902 14.0558 7.2536 14.5117 7.26452L14.633 7.26889C14.773 7.27389 14.9111 7.28014 15.078 7.28764C15.743 7.31889 16.1967 7.42389 16.5948 7.57827C17.0073 7.73702 17.3548 7.95202 17.7023 8.29952C18.0201 8.61177 18.266 8.98949 18.423 9.40639C18.5773 9.80452 18.6823 10.2589 18.7136 10.9239C18.7211 11.0901 18.7273 11.2289 18.7323 11.3689L18.7361 11.4901C18.7472 11.9459 18.752 12.4018 18.7505 12.8576L18.7511 13.3239V14.1426C18.7526 14.5987 18.7478 15.0548 18.7367 15.5108L18.733 15.632C18.728 15.772 18.7217 15.9101 18.7142 16.077C18.683 16.742 18.5767 17.1958 18.423 17.5939C18.2665 18.0112 18.0205 18.3893 17.7023 18.7014C17.3898 19.0191 17.0119 19.265 16.5948 19.422C16.1967 19.5764 15.743 19.6814 15.078 19.7126C14.9111 19.7201 14.773 19.7264 14.633 19.7314L14.5117 19.7351C14.0558 19.7463 13.5997 19.751 13.1436 19.7495L12.6773 19.7501H11.8592C11.4031 19.7517 10.947 19.7469 10.4911 19.7358L10.3698 19.732C10.2215 19.7266 10.0731 19.7204 9.92484 19.7133C9.25984 19.682 8.80609 19.5758 8.40734 19.422C7.99027 19.2654 7.61249 19.0194 7.30047 18.7014C6.98237 18.3891 6.73623 18.0111 6.57922 17.5939C6.42484 17.1958 6.31984 16.742 6.28859 16.077C6.28163 15.9287 6.27538 15.7804 6.26984 15.632L6.26672 15.5108C6.2552 15.0548 6.24999 14.5987 6.25109 14.1426V12.8576C6.24935 12.4018 6.25393 11.9459 6.26484 11.4901L6.26922 11.3689C6.27422 11.2289 6.28047 11.0901 6.28797 10.9239C6.31922 10.2583 6.42422 9.80514 6.57859 9.40639C6.7357 8.98928 6.98232 8.61167 7.30109 8.30014C7.6129 7.98186 7.99044 7.7355 8.40734 7.57827C8.80609 7.42389 9.25922 7.31889 9.92484 7.28764L10.3698 7.26889L10.4911 7.26577C10.9468 7.25425 11.4027 7.24904 11.8586 7.25014L13.1436 7.25077ZM12.5011 10.3758C12.087 10.3699 11.6759 10.4464 11.2917 10.6008C10.9075 10.7552 10.5577 10.9844 10.2629 11.2752C9.968 11.5659 9.73384 11.9124 9.57402 12.2944C9.4142 12.6764 9.3319 13.0864 9.3319 13.5005C9.3319 13.9146 9.4142 14.3245 9.57402 14.7065C9.73384 15.0886 9.968 15.435 10.2629 15.7257C10.5577 16.0165 10.9075 16.2457 11.2917 16.4001C11.6759 16.5545 12.087 16.631 12.5011 16.6251C13.3299 16.6251 14.1248 16.2959 14.7108 15.7099C15.2969 15.1238 15.6261 14.3289 15.6261 13.5001C15.6261 12.6713 15.2969 11.8765 14.7108 11.2904C14.1248 10.7044 13.3299 10.3758 12.5011 10.3758ZM12.5011 11.6258C12.7502 11.6212 12.9976 11.6663 13.2291 11.7584C13.4605 11.8505 13.6713 11.9879 13.8491 12.1624C14.0269 12.3369 14.1681 12.545 14.2645 12.7747C14.3609 13.0044 14.4106 13.251 14.4106 13.5001C14.4107 13.7492 14.3611 13.9959 14.2647 14.2256C14.1684 14.4553 14.0272 14.6635 13.8495 14.8381C13.6718 15.0127 13.4611 15.1501 13.2297 15.2423C12.9983 15.3345 12.7508 15.3797 12.5017 15.3751C12.0044 15.3751 11.5275 15.1776 11.1759 14.826C10.8243 14.4743 10.6267 13.9974 10.6267 13.5001C10.6267 13.0029 10.8243 12.5259 11.1759 12.1743C11.5275 11.8227 12.0044 11.6251 12.5017 11.6251L12.5011 11.6258ZM15.7823 9.43827C15.5807 9.44634 15.39 9.53211 15.2502 9.67763C15.1104 9.82314 15.0323 10.0171 15.0323 10.2189C15.0323 10.4207 15.1104 10.6146 15.2502 10.7602C15.39 10.9057 15.5807 10.9914 15.7823 10.9995C15.9895 10.9995 16.1883 10.9172 16.3348 10.7707C16.4813 10.6242 16.5636 10.4255 16.5636 10.2183C16.5636 10.0111 16.4813 9.81235 16.3348 9.66584C16.1883 9.51933 15.9895 9.43702 15.7823 9.43702V9.43827Z" fill="#0071BC"/>
</svg>
