<svg width="26" height="26" viewBox="0 0 26 26" fill="none" xmlns="http://www.w3.org/2000/svg">
<rect x="0.4187" y="0.4187" width="25.1626" height="25.1626" rx="12.5813" stroke="#0071BC" stroke-width="0.8374"/>
<path d="M9.33674 9.12514C9.33658 9.45666 9.20472 9.77453 8.97018 10.0088C8.73565 10.2431 8.41764 10.3747 8.08612 10.3745C7.7546 10.3743 7.43672 10.2425 7.20242 10.008C6.96811 9.77342 6.83658 9.45541 6.83674 9.12389C6.83691 8.79237 6.96876 8.47449 7.2033 8.24019C7.43784 8.00588 7.75585 7.87435 8.08737 7.87451C8.41889 7.87468 8.73676 8.00653 8.97107 8.24107C9.20537 8.47561 9.33691 8.79362 9.33674 9.12514ZM9.37424 11.3001H6.87424V19.1251H9.37424V11.3001ZM13.3242 11.3001H10.8367V19.1251H13.2992V15.0189C13.2992 12.7314 16.2805 12.5189 16.2805 15.0189V19.1251H18.7492V14.1689C18.7492 10.3126 14.3367 10.4564 13.2992 12.3501L13.3242 11.3001Z" fill="#0071BC"/>
</svg>
