<svg width="16" height="21" viewBox="0 0 16 21" fill="none" xmlns="http://www.w3.org/2000/svg">
<path d="M7.77778 10.874C8.3125 10.874 8.77042 10.678 9.15153 10.286C9.53199 9.89469 9.72222 9.42402 9.72222 8.87402C9.72222 8.32402 9.53199 7.85302 9.15153 7.46102C8.77042 7.06969 8.3125 6.87402 7.77778 6.87402C7.24305 6.87402 6.78546 7.06969 6.405 7.46102C6.02389 7.85302 5.83333 8.32402 5.83333 8.87402C5.83333 9.42402 6.02389 9.89469 6.405 10.286C6.78546 10.678 7.24305 10.874 7.77778 10.874ZM7.77778 20.874C5.16898 18.5907 3.22065 16.4697 1.93278 14.511C0.644259 12.553 0 10.7407 0 9.07402C0 6.57402 0.781991 4.58236 2.34597 3.09902C3.90931 1.61569 5.71991 0.874023 7.77778 0.874023C9.83565 0.874023 11.6462 1.61569 13.2096 3.09902C14.7736 4.58236 15.5556 6.57402 15.5556 9.07402C15.5556 10.7407 14.9116 12.553 13.6237 14.511C12.3352 16.4697 10.3866 18.5907 7.77778 20.874Z" fill="#0071BC"/>
</svg>
