<svg width="29" height="29" viewBox="0 0 29 29" fill="none" xmlns="http://www.w3.org/2000/svg">
<path d="M26.5333 28.75L16.5583 18.775C15.7667 19.4083 14.8563 19.9097 13.8271 20.2792C12.7979 20.6486 11.7028 20.8333 10.5417 20.8333C7.66528 20.8333 5.23117 19.8369 3.23933 17.844C1.2475 15.8511 0.251056 13.417 0.250001 10.5417C0.248945 7.66633 1.24539 5.23222 3.23933 3.23933C5.23328 1.24644 7.66739 0.25 10.5417 0.25C13.4159 0.25 15.8506 1.24644 17.8456 3.23933C19.8406 5.23222 20.8365 7.66633 20.8333 10.5417C20.8333 11.7028 20.6486 12.7979 20.2792 13.8271C19.9097 14.8562 19.4083 15.7667 18.775 16.5583L28.75 26.5333L26.5333 28.75ZM10.5417 17.6667C12.5208 17.6667 14.2034 16.9742 15.5893 15.5893C16.9753 14.2044 17.6677 12.5219 17.6667 10.5417C17.6656 8.56144 16.9732 6.87942 15.5893 5.49558C14.2055 4.11175 12.5229 3.41878 10.5417 3.41667C8.56039 3.41456 6.87836 4.10753 5.49558 5.49558C4.11281 6.88364 3.41983 8.56567 3.41667 10.5417C3.4135 12.5177 4.10647 14.2002 5.49558 15.5893C6.8847 16.9784 8.56672 17.6709 10.5417 17.6667Z" fill="white"/>
</svg>
